<svg width="269" height="497" viewBox="0 0 269 497" fill="none" xmlns="http://www.w3.org/2000/svg">
<path fill-rule="evenodd" clip-rule="evenodd" d="M251.413 0.0289103C297.461 -1.03399 337.222 27.4039 375.06 53.621C413.739 80.4199 451.04 109.729 471.105 152.246C493.097 198.849 507.484 252.388 492.062 301.549C476.572 350.928 429.534 380.316 389.318 412.965C346.498 447.728 306.573 494.992 251.413 496.92C195.759 498.866 142.608 465.012 106.305 422.86C73.9526 385.295 84.533 329.669 67.3453 283.197C49.0336 233.687 -11.868 193.569 2.74109 142.847C17.2713 92.3984 86.2697 85.4132 131.851 59.2348C171.38 36.5325 205.82 1.08128 251.413 0.0289103Z" fill="#6246EA"/>
</svg>
